<svg xmlns="http://www.w3.org/2000/svg" data-name="Layer 1 copy 3" viewBox="0 0 48 48" id="moon"><path fill="#e7dece" d="M39.689,18.234l.53-.468.53.468a1.317,1.317,0,0,1,.447.989v.7H39.242v-.7A1.317,1.317,0,0,1,39.689,18.234Z"></path><rect width="1.954" height="1.808" x="39.242" y="19.919" fill="#f5f0e7" transform="rotate(-180 40.219 20.822)"></rect><path fill="#e7dece" d="M15.437,18.234l.53-.468.53.468a1.317,1.317,0,0,1,.447.989v.7H14.99v-.7A1.317,1.317,0,0,1,15.437,18.234Z"></path><rect width="1.954" height="1.808" x="14.99" y="19.919" fill="#f5f0e7"></rect><path fill="#d8cdb8" d="M39.244,37.565A21.073,21.073,0,0,0,41.2,36.244V24.821H39.244Z"></path><polygon fill="#e7dece" points="39.242 21.726 39.242 24.821 39.244 24.821 41.196 24.821 41.196 21.726 39.242 21.726"></polygon><path fill="#d8cdb8" d="M14.99,35.7a21.22,21.22,0,0,0,1.954,1.439V24.821H14.99Z"></path><rect width="1.954" height="3.095" x="14.99" y="21.726" fill="#e7dece"></rect><path fill="#c3b7a5" d="M37.085 35.142a2.425 2.425 0 1 0-4.85 0v5.077a20.792 20.792 0 0 0 4.85-1.512zM30.52 40.46V35.142a2.426 2.426 0 1 0-4.851 0v5.229a21.144 21.144 0 0 0 2.774.2C29.145 40.575 29.836 40.528 30.52 40.46zM23.955 35.142a2.426 2.426 0 1 0-4.851 0v3.224a20.821 20.821 0 0 0 4.851 1.717z"></path><path fill="#d8cdb8" d="M31.04,13.14a8.48,8.48,0,0,0-2.95-.53,1.77,1.77,0,0,0-.23.01,8.6,8.6,0,0,0-2.74.53,6.685,6.685,0,0,0,1.39-1.73,2.082,2.082,0,0,1,1.57-1.25h.01a2.082,2.082,0,0,1,1.57,1.25A6.829,6.829,0,0,0,31.04,13.14Z"></path><path fill="#e7dece" d="M28.085,9.211a.375.375,0,0,1-.375-.375V4.508a.375.375,0,0,1,.75,0V8.836A.375.375,0,0,1,28.085,9.211Z"></path><circle cx="28.085" cy="9.244" r=".924" fill="#d8cdb8"></circle><path fill="#e7dece" d="M36.58,21.1a8.44,8.44,0,0,1-.86,3.72H20.44a8.737,8.737,0,0,1-.83-3.72,8.474,8.474,0,0,1,5.5-7.94l.01-.01a8.6,8.6,0,0,1,2.74-.53,1.77,1.77,0,0,1,.23-.01,8.493,8.493,0,0,1,8.49,8.49Z"></path><path fill="#f5f0e7" d="M36.58,21.1a8.44,8.44,0,0,1-.86,3.72H24.83a10.521,10.521,0,0,1-.87-4.2,10.119,10.119,0,0,1,3.9-8,1.77,1.77,0,0,1,.23-.01A8.489,8.489,0,0,1,36.58,21.1Z"></path><path fill="#e7dece" d="M16.946,37.14A21.272,21.272,0,0,0,19.1,38.366V35.142a2.426,2.426,0,1,1,4.851,0v4.941c.563.123,1.136.212,1.714.288V35.142a2.426,2.426,0,1,1,4.851,0V40.46q.869-.086,1.715-.241V35.142a2.425,2.425,0,1,1,4.85,0v3.565a20.915,20.915,0,0,0,2.157-1.141V30.9h-22.3Z"></path><rect width="22.29" height="4.08" x="16.95" y="26.82" fill="#b3a999"></rect><rect width="21.69" height="3.41" x="16.95" y="27.49" fill="#c3b7a5"></rect><rect width="22.296" height="1.998" x="16.946" y="24.821" fill="#d8cdb8"></rect><rect width="22.296" height=".826" x="16.946" y="30.896" fill="#d8cdb8"></rect><path fill="#ebb12a" d="M43.07 4.692h-.749v-.78a.5.5 0 1 0-1 0v.78h-.748a.5.5 0 0 0 0 1h.748v.781a.5.5 0 0 0 1 0V5.692h.749a.5.5 0 0 0 0-1zM37.589 10.023H36.84v-.78a.5.5 0 0 0-1 0v.78h-.748a.5.5 0 0 0 0 1h.748V11.8a.5.5 0 1 0 1 0v-.781h.749a.5.5 0 0 0 0-1z"></path><path fill="#b3a999" d="M34.66 32.716a2.409 2.409 0 0 0-1.444.487 2.4 2.4 0 0 1 3.208 2.285v3.495c.221-.091.444-.178.661-.276V35.142A2.425 2.425 0 0 0 34.66 32.716zM28.1 32.716a2.409 2.409 0 0 0-1.444.487 2.4 2.4 0 0 1 3.208 2.285v5.025c.221-.016.442-.031.661-.053V35.142A2.426 2.426 0 0 0 28.1 32.716zM21.53 32.716a2.407 2.407 0 0 0-1.444.487 2.4 2.4 0 0 1 3.208 2.285v4.428c.22.056.438.118.661.167V35.142A2.426 2.426 0 0 0 21.53 32.716z"></path><path fill="#ebb12a" d="M47.5,28.4A23.715,23.715,0,1,1,19.64.5c-.02.01-.03.02-.05.02A21,21,0,1,0,47.5,28.4Z"></path><path fill="#fcbd55" d="M47.5,28.4A22.319,22.319,0,1,1,19.59.52,21,21,0,1,0,47.5,28.4Z"></path></svg>