<svg xmlns="http://www.w3.org/2000/svg" viewBox="0 0 47.5 47.5" id="sun"><defs><clipPath id="a"><path d="M0 38h38V0H0v38Z"></path></clipPath></defs><g clip-path="url(#a)" transform="matrix(1.25 0 0 -1.25 0 47.5)"><path fill="#f4900c" d="M19 1.2c-.39 0-.745.218-.921.565l-1.8 3.554-3.024-2.596a1.044 1.044 0 0 0-1.066-.169 1.03 1.03 0 0 0-.634.874l-.304 3.975-3.788-1.241a1.035 1.035 0 0 0-1.301 1.303l1.24 3.788-3.972.301a1.036 1.036 0 0 0-.875.633c-.148.362-.083.773.17 1.068l2.594 3.024-3.553 1.8a1.032 1.032 0 0 0 0 1.842l3.553 1.8-2.594 3.023a1.032 1.032 0 0 0 .705 1.701l3.972.304-1.24 3.787c-.121.37-.024.776.25 1.052a1.037 1.037 0 0 0 1.051.25l3.788-1.24.304 3.972a1.03 1.03 0 0 0 1.7.705l3.024-2.595 1.8 3.554a1.032 1.032 0 0 0 1.841.001l1.802-3.555 3.024 2.595a1.036 1.036 0 0 0 1.067.17c.359-.149.603-.488.634-.875l.303-3.972 3.785 1.24a1.03 1.03 0 0 0 1.303-1.302l-1.241-3.787 3.975-.304a1.032 1.032 0 0 0 .704-1.701l-2.595-3.023 3.553-1.8a1.033 1.033 0 0 0 0-1.842l-3.553-1.8 2.595-3.024a1.033 1.033 0 0 0-.707-1.701l-3.972-.301 1.241-3.788a1.029 1.029 0 0 0-.252-1.051 1.028 1.028 0 0 0-1.051-.252L26.75 7.403l-.303-3.973a1.037 1.037 0 0 0-1.03-.954c-.24 0-.48.086-.671.247l-3.024 2.596-1.802-3.554A1.03 1.03 0 0 0 19 1.2"></path><path fill="#ffcc4d" d="M32 19c0-7.179-5.821-13-13-13S6 11.821 6 19c0 7.18 5.821 13 13 13s13-5.82 13-13"></path><path fill="#f4900c" d="M19 13.53c-6.222 0-8 2.328-8 1.229 0-1.102 3.556-3.981 8-3.981s8 2.879 8 3.981c0 1.099-1.777-1.229-8-1.229M27 22.334a2.667 2.667 0 1 0-5.334 0 2.667 2.667 0 0 0 5.334 0M16.334 22.334a2.668 2.668 0 1 0-5.335.001 2.668 2.668 0 0 0 5.335-.001"></path></g></svg>